<?xml version="1.0" encoding="UTF-8"?>
<svg width="1920" height="1080" viewBox="0 0 1920 1080" fill="none" xmlns="http://www.w3.org/2000/svg">
  <defs>
    <linearGradient id="bg" x1="0" y1="0" x2="1920" y2="1080">
      <stop stop-color="#070b1a"/>
      <stop offset="0.55" stop-color="#0c1230"/>
      <stop offset="1" stop-color="#111032"/>
    </linearGradient>
    <radialGradient id="glowA" cx="0" cy="0" r="1" gradientUnits="userSpaceOnUse" gradientTransform="translate(1480 180) rotate(145) scale(620 420)">
      <stop stop-color="#a855f7" stop-opacity="0.34"/>
      <stop offset="1" stop-color="#a855f7" stop-opacity="0"/>
    </radialGradient>
    <radialGradient id="glowB" cx="0" cy="0" r="1" gradientUnits="userSpaceOnUse" gradientTransform="translate(330 900) rotate(-25) scale(620 360)">
      <stop stop-color="#38bdf8" stop-opacity="0.24"/>
      <stop offset="1" stop-color="#38bdf8" stop-opacity="0"/>
    </radialGradient>
    <marker id="arrow" markerWidth="12" markerHeight="12" refX="10" refY="6" orient="auto" markerUnits="strokeWidth">
      <path d="M2,2 L10,6 L2,10 Z" fill="#38bdf8"/>
    </marker>
    <filter id="shadow" x="-20%" y="-20%" width="140%" height="140%">
      <feDropShadow dx="0" dy="18" stdDeviation="24" flood-color="#000000" flood-opacity="0.35"/>
    </filter>
  </defs>
  <rect width="1920" height="1080" fill="url(#bg)"/>
  <rect width="1920" height="1080" fill="url(#glowA)"/>
  <rect width="1920" height="1080" fill="url(#glowB)"/>
  <g font-family="Inter, Segoe UI, Arial, sans-serif">
    
    
    <text x="110" y="92" font-size="24" font-weight="800" fill="#38bdf8" letter-spacing="4">APPLYFLOW AI CASE STUDY</text>
    <text x="110" y="158" font-size="56" font-weight="850" fill="#f8fbff">Modern Architecture</text>
    
    <rect x="160" y="255" width="560" height="76" rx="24" fill="#151f45" stroke="#38bdf8" stroke-width="2.5"/>
    <circle cx="198" cy="293" r="12" fill="#38bdf8"/>
    <text x="228" y="293" font-size="28" font-weight="750" fill="#f8fbff">Next.js Frontend</text>
    <text x="228" y="322" font-size="20" fill="#aebce0">React, TypeScript, Tailwind</text><path d="M 440 339 L 440 393" stroke="#38bdf8" stroke-width="5" stroke-linecap="round" marker-end="url(#arrow)"/>

    <rect x="160" y="405" width="560" height="76" rx="24" fill="#151f45" stroke="#6366f1" stroke-width="2.5"/>
    <circle cx="198" cy="443" r="12" fill="#6366f1"/>
    <text x="228" y="443" font-size="28" font-weight="750" fill="#f8fbff">REST APIs</text>
    <text x="228" y="472" font-size="20" fill="#aebce0">Axios service modules</text><path d="M 440 489 L 440 543" stroke="#6366f1" stroke-width="5" stroke-linecap="round" marker-end="url(#arrow)"/>

    <rect x="160" y="555" width="560" height="76" rx="24" fill="#151f45" stroke="#a855f7" stroke-width="2.5"/>
    <circle cx="198" cy="593" r="12" fill="#a855f7"/>
    <text x="228" y="593" font-size="28" font-weight="750" fill="#f8fbff">ASP.NET Core Web API</text>
    <text x="228" y="622" font-size="20" fill="#aebce0">.NET 10 backend</text><path d="M 440 639 L 440 693" stroke="#a855f7" stroke-width="5" stroke-linecap="round" marker-end="url(#arrow)"/>

    <rect x="160" y="705" width="560" height="76" rx="24" fill="#151f45" stroke="#38bdf8" stroke-width="2.5"/>
    <circle cx="198" cy="743" r="12" fill="#38bdf8"/>
    <text x="228" y="743" font-size="28" font-weight="750" fill="#f8fbff">Controllers</text>
    <text x="228" y="772" font-size="20" fill="#aebce0">Auth, Applications, Dashboard, Resumes</text>
    
    <rect x="1050" y="255" width="560" height="76" rx="24" fill="#151f45" stroke="#a855f7" stroke-width="2.5"/>
    <circle cx="1088" cy="293" r="12" fill="#a855f7"/>
    <text x="1118" y="293" font-size="28" font-weight="750" fill="#f8fbff">Services</text>
    <text x="1118" y="322" font-size="20" fill="#aebce0">Business logic + user scoping</text><path d="M 1330 339 L 1330 393" stroke="#a855f7" stroke-width="5" stroke-linecap="round" marker-end="url(#arrow)"/>

    <rect x="1050" y="405" width="560" height="76" rx="24" fill="#151f45" stroke="#6366f1" stroke-width="2.5"/>
    <circle cx="1088" cy="443" r="12" fill="#6366f1"/>
    <text x="1118" y="443" font-size="28" font-weight="750" fill="#f8fbff">DTOs</text>
    <text x="1118" y="472" font-size="20" fill="#aebce0">Request/response contracts</text><path d="M 1330 489 L 1330 543" stroke="#6366f1" stroke-width="5" stroke-linecap="round" marker-end="url(#arrow)"/>

    <rect x="1050" y="555" width="560" height="76" rx="24" fill="#151f45" stroke="#38bdf8" stroke-width="2.5"/>
    <circle cx="1088" cy="593" r="12" fill="#38bdf8"/>
    <text x="1118" y="593" font-size="28" font-weight="750" fill="#f8fbff">Entity Framework Core</text>
    <text x="1118" y="622" font-size="20" fill="#aebce0">Migrations + DbContext</text><path d="M 1330 639 L 1330 693" stroke="#38bdf8" stroke-width="5" stroke-linecap="round" marker-end="url(#arrow)"/>

    <rect x="1050" y="705" width="560" height="76" rx="24" fill="#151f45" stroke="#a855f7" stroke-width="2.5"/>
    <circle cx="1088" cy="743" r="12" fill="#a855f7"/>
    <text x="1118" y="743" font-size="28" font-weight="750" fill="#f8fbff">PostgreSQL</text>
    <text x="1118" y="772" font-size="20" fill="#aebce0">Relational persistence</text>
    <path d="M 720 632 L 1050 632" stroke="#34d399" stroke-width="5" stroke-linecap="round" marker-end="url(#arrow)"/>
    <text x="885" y="602" text-anchor="middle" font-size="24" font-weight="800" fill="#34d399">clean service boundary</text>
  
    
    <text x="110" y="1010" font-size="22" fill="#aebce0">ASP.NET Core | Next.js | PostgreSQL | Playwright | Jira</text>
    <text x="1810" y="1010" text-anchor="end" font-size="24" font-weight="800" fill="#aebce0">03/14</text>
  </g>
  <title>Modern Architecture Diagram</title>
</svg>