<?xml version="1.0" encoding="UTF-8"?>
<svg width="1920" height="1080" viewBox="0 0 1920 1080" fill="none" xmlns="http://www.w3.org/2000/svg">
  <defs>
    <linearGradient id="bg" x1="0" y1="0" x2="1920" y2="1080">
      <stop stop-color="#070b1a"/>
      <stop offset="0.55" stop-color="#0c1230"/>
      <stop offset="1" stop-color="#111032"/>
    </linearGradient>
    <radialGradient id="glowA" cx="0" cy="0" r="1" gradientUnits="userSpaceOnUse" gradientTransform="translate(1480 180) rotate(145) scale(620 420)">
      <stop stop-color="#a855f7" stop-opacity="0.34"/>
      <stop offset="1" stop-color="#a855f7" stop-opacity="0"/>
    </radialGradient>
    <radialGradient id="glowB" cx="0" cy="0" r="1" gradientUnits="userSpaceOnUse" gradientTransform="translate(330 900) rotate(-25) scale(620 360)">
      <stop stop-color="#38bdf8" stop-opacity="0.24"/>
      <stop offset="1" stop-color="#38bdf8" stop-opacity="0"/>
    </radialGradient>
    <marker id="arrow" markerWidth="12" markerHeight="12" refX="10" refY="6" orient="auto" markerUnits="strokeWidth">
      <path d="M2,2 L10,6 L2,10 Z" fill="#38bdf8"/>
    </marker>
    <filter id="shadow" x="-20%" y="-20%" width="140%" height="140%">
      <feDropShadow dx="0" dy="18" stdDeviation="24" flood-color="#000000" flood-opacity="0.35"/>
    </filter>
  </defs>
  <rect width="1920" height="1080" fill="url(#bg)"/>
  <rect width="1920" height="1080" fill="url(#glowA)"/>
  <rect width="1920" height="1080" fill="url(#glowB)"/>
  <g font-family="Inter, Segoe UI, Arial, sans-serif">
    
    
    <text x="110" y="92" font-size="24" font-weight="800" fill="#38bdf8" letter-spacing="4">APPLYFLOW AI CASE STUDY</text>
    <text x="110" y="158" font-size="56" font-weight="850" fill="#f8fbff">Legacy Modernization Flow</text>
    
    <rect x="160" y="230" width="480" height="76" rx="24" fill="#151f45" stroke="#38bdf8" stroke-width="2.5"/>
    <circle cx="198" cy="268" r="12" fill="#38bdf8"/>
    <text x="228" y="279" font-size="28" font-weight="750" fill="#f8fbff">Legacy C++</text>
    <path d="M 400 314 L 400 336" stroke="#38bdf8" stroke-width="5" stroke-linecap="round" marker-end="url(#arrow)"/>

    <rect x="160" y="348" width="480" height="76" rx="24" fill="#151f45" stroke="#6366f1" stroke-width="2.5"/>
    <circle cx="198" cy="386" r="12" fill="#6366f1"/>
    <text x="228" y="397" font-size="28" font-weight="750" fill="#f8fbff">File-Based Storage</text>
    <path d="M 400 432 L 400 454" stroke="#6366f1" stroke-width="5" stroke-linecap="round" marker-end="url(#arrow)"/>

    <rect x="160" y="466" width="480" height="76" rx="24" fill="#151f45" stroke="#a855f7" stroke-width="2.5"/>
    <circle cx="198" cy="504" r="12" fill="#a855f7"/>
    <text x="228" y="504" font-size="28" font-weight="750" fill="#f8fbff">Migration Pipeline</text>
    <text x="228" y="533" font-size="20" fill="#aebce0">PowerShell import script</text><path d="M 400 550 L 400 572" stroke="#a855f7" stroke-width="5" stroke-linecap="round" marker-end="url(#arrow)"/>

    <rect x="160" y="584" width="480" height="76" rx="24" fill="#151f45" stroke="#38bdf8" stroke-width="2.5"/>
    <circle cx="198" cy="622" r="12" fill="#38bdf8"/>
    <text x="228" y="622" font-size="28" font-weight="750" fill="#f8fbff">Validation</text>
    <text x="228" y="651" font-size="20" fill="#aebce0">row format, status, dates</text><path d="M 400 668 L 400 690" stroke="#38bdf8" stroke-width="5" stroke-linecap="round" marker-end="url(#arrow)"/>

    <rect x="160" y="702" width="480" height="76" rx="24" fill="#151f45" stroke="#6366f1" stroke-width="2.5"/>
    <circle cx="198" cy="740" r="12" fill="#6366f1"/>
    <text x="228" y="740" font-size="28" font-weight="750" fill="#f8fbff">Normalization</text>
    <text x="228" y="769" font-size="20" fill="#aebce0">users + applications</text><path d="M 400 786 L 400 808" stroke="#6366f1" stroke-width="5" stroke-linecap="round" marker-end="url(#arrow)"/>

    <rect x="160" y="820" width="480" height="76" rx="24" fill="#151f45" stroke="#a855f7" stroke-width="2.5"/>
    <circle cx="198" cy="858" r="12" fill="#a855f7"/>
    <text x="228" y="869" font-size="28" font-weight="750" fill="#f8fbff">PostgreSQL</text>
    
    <rect x="820" y="300" width="850" height="390" rx="32" fill="#111936" stroke="#30406f" stroke-width="2"/>
    <text x="890" y="380" font-size="46" font-weight="900" fill="#f8fbff">Modern Web Platform</text>
    <text x="890" y="455" font-size="32" fill="#aebce0">Authenticated APIs, EF Core models, dashboard analytics, resume library, and browser workflows.</text>
    <rect x="890" y="555" width="450" height="76" rx="24" fill="#34d399" opacity="0.15" stroke="#34d399" stroke-width="2"/>
    <text x="1115" y="604" text-anchor="middle" font-size="32" font-weight="850" fill="#34d399">No Data Loss Goal</text>
  
    
    <text x="110" y="1010" font-size="22" fill="#aebce0">ASP.NET Core | Next.js | PostgreSQL | Playwright | Jira</text>
    <text x="1810" y="1010" text-anchor="end" font-size="24" font-weight="800" fill="#aebce0">04/14</text>
  </g>
  <title>Legacy Modernization Flow</title>
</svg>