<?xml version="1.0" encoding="UTF-8"?>
<svg width="1920" height="1080" viewBox="0 0 1920 1080" fill="none" xmlns="http://www.w3.org/2000/svg">
  <defs>
    <linearGradient id="bg" x1="0" y1="0" x2="1920" y2="1080">
      <stop stop-color="#070b1a"/>
      <stop offset="0.55" stop-color="#0c1230"/>
      <stop offset="1" stop-color="#111032"/>
    </linearGradient>
    <radialGradient id="glowA" cx="0" cy="0" r="1" gradientUnits="userSpaceOnUse" gradientTransform="translate(1480 180) rotate(145) scale(620 420)">
      <stop stop-color="#a855f7" stop-opacity="0.34"/>
      <stop offset="1" stop-color="#a855f7" stop-opacity="0"/>
    </radialGradient>
    <radialGradient id="glowB" cx="0" cy="0" r="1" gradientUnits="userSpaceOnUse" gradientTransform="translate(330 900) rotate(-25) scale(620 360)">
      <stop stop-color="#38bdf8" stop-opacity="0.24"/>
      <stop offset="1" stop-color="#38bdf8" stop-opacity="0"/>
    </radialGradient>
    <marker id="arrow" markerWidth="12" markerHeight="12" refX="10" refY="6" orient="auto" markerUnits="strokeWidth">
      <path d="M2,2 L10,6 L2,10 Z" fill="#38bdf8"/>
    </marker>
    <filter id="shadow" x="-20%" y="-20%" width="140%" height="140%">
      <feDropShadow dx="0" dy="18" stdDeviation="24" flood-color="#000000" flood-opacity="0.35"/>
    </filter>
  </defs>
  <rect width="1920" height="1080" fill="url(#bg)"/>
  <rect width="1920" height="1080" fill="url(#glowA)"/>
  <rect width="1920" height="1080" fill="url(#glowB)"/>
  <g font-family="Inter, Segoe UI, Arial, sans-serif">
    
    
    <text x="110" y="92" font-size="24" font-weight="800" fill="#38bdf8" letter-spacing="4">APPLYFLOW AI CASE STUDY</text>
    <text x="110" y="158" font-size="56" font-weight="850" fill="#f8fbff">Application Workflow</text>
    
    <rect x="150" y="260" width="420" height="98" rx="24" fill="#151f45" stroke="#38bdf8" stroke-width="2.5"/>
    <circle cx="188" cy="309" r="12" fill="#38bdf8"/>
    <text x="218" y="320" font-size="28" font-weight="750" fill="#f8fbff">User Login</text>
    <path d="M 570 309 L 690 309" stroke="#38bdf8" stroke-width="5" stroke-linecap="round" marker-end="url(#arrow)"/>

    <rect x="720" y="260" width="420" height="98" rx="24" fill="#151f45" stroke="#6366f1" stroke-width="2.5"/>
    <circle cx="758" cy="309" r="12" fill="#6366f1"/>
    <text x="788" y="320" font-size="28" font-weight="750" fill="#f8fbff">Dashboard</text>
    <path d="M 1140 309 L 1260 309" stroke="#6366f1" stroke-width="5" stroke-linecap="round" marker-end="url(#arrow)"/>

    <rect x="1290" y="260" width="420" height="98" rx="24" fill="#151f45" stroke="#a855f7" stroke-width="2.5"/>
    <circle cx="1328" cy="309" r="12" fill="#a855f7"/>
    <text x="1358" y="320" font-size="28" font-weight="750" fill="#f8fbff">Create Application</text>
    <path d="M 1500 366 L 1500 450" stroke="#a855f7" stroke-width="5" stroke-linecap="round" marker-end="url(#arrow)"/>

    <rect x="150" y="470" width="420" height="98" rx="24" fill="#151f45" stroke="#38bdf8" stroke-width="2.5"/>
    <circle cx="188" cy="519" r="12" fill="#38bdf8"/>
    <text x="218" y="530" font-size="28" font-weight="750" fill="#f8fbff">Upload Resume</text>
    <path d="M 570 519 L 690 519" stroke="#38bdf8" stroke-width="5" stroke-linecap="round" marker-end="url(#arrow)"/>

    <rect x="720" y="470" width="420" height="98" rx="24" fill="#151f45" stroke="#6366f1" stroke-width="2.5"/>
    <circle cx="758" cy="519" r="12" fill="#6366f1"/>
    <text x="788" y="530" font-size="28" font-weight="750" fill="#f8fbff">Add Job Description</text>
    <path d="M 1140 519 L 1260 519" stroke="#6366f1" stroke-width="5" stroke-linecap="round" marker-end="url(#arrow)"/>

    <rect x="1290" y="470" width="420" height="98" rx="24" fill="#151f45" stroke="#a855f7" stroke-width="2.5"/>
    <circle cx="1328" cy="519" r="12" fill="#a855f7"/>
    <text x="1358" y="530" font-size="28" font-weight="750" fill="#f8fbff">Match Analysis</text>
    <path d="M 1500 576 L 1500 660" stroke="#a855f7" stroke-width="5" stroke-linecap="round" marker-end="url(#arrow)"/>

    <rect x="150" y="680" width="420" height="98" rx="24" fill="#151f45" stroke="#38bdf8" stroke-width="2.5"/>
    <circle cx="188" cy="729" r="12" fill="#38bdf8"/>
    <text x="218" y="740" font-size="28" font-weight="750" fill="#f8fbff">Kanban Tracking</text>
    <path d="M 570 729 L 690 729" stroke="#38bdf8" stroke-width="5" stroke-linecap="round" marker-end="url(#arrow)"/>

    <rect x="720" y="680" width="420" height="98" rx="24" fill="#151f45" stroke="#6366f1" stroke-width="2.5"/>
    <circle cx="758" cy="729" r="12" fill="#6366f1"/>
    <text x="788" y="740" font-size="28" font-weight="750" fill="#f8fbff">Interview</text>
    <path d="M 1140 729 L 1260 729" stroke="#6366f1" stroke-width="5" stroke-linecap="round" marker-end="url(#arrow)"/>

    <rect x="1290" y="680" width="420" height="98" rx="24" fill="#151f45" stroke="#a855f7" stroke-width="2.5"/>
    <circle cx="1328" cy="729" r="12" fill="#a855f7"/>
    <text x="1358" y="740" font-size="28" font-weight="750" fill="#f8fbff">Offer / Rejection</text>
    
  
    
    <text x="110" y="1010" font-size="22" fill="#aebce0">ASP.NET Core | Next.js | PostgreSQL | Playwright | Jira</text>
    <text x="1810" y="1010" text-anchor="end" font-size="24" font-weight="800" fill="#aebce0">06/14</text>
  </g>
  <title>Application Workflow</title>
</svg>