<?xml version="1.0" encoding="UTF-8"?>
<svg width="1920" height="1080" viewBox="0 0 1920 1080" fill="none" xmlns="http://www.w3.org/2000/svg">
  <defs>
    <linearGradient id="bg" x1="0" y1="0" x2="1920" y2="1080">
      <stop stop-color="#070b1a"/>
      <stop offset="0.55" stop-color="#0c1230"/>
      <stop offset="1" stop-color="#111032"/>
    </linearGradient>
    <radialGradient id="glowA" cx="0" cy="0" r="1" gradientUnits="userSpaceOnUse" gradientTransform="translate(1480 180) rotate(145) scale(620 420)">
      <stop stop-color="#a855f7" stop-opacity="0.34"/>
      <stop offset="1" stop-color="#a855f7" stop-opacity="0"/>
    </radialGradient>
    <radialGradient id="glowB" cx="0" cy="0" r="1" gradientUnits="userSpaceOnUse" gradientTransform="translate(330 900) rotate(-25) scale(620 360)">
      <stop stop-color="#38bdf8" stop-opacity="0.24"/>
      <stop offset="1" stop-color="#38bdf8" stop-opacity="0"/>
    </radialGradient>
    <marker id="arrow" markerWidth="12" markerHeight="12" refX="10" refY="6" orient="auto" markerUnits="strokeWidth">
      <path d="M2,2 L10,6 L2,10 Z" fill="#38bdf8"/>
    </marker>
    <filter id="shadow" x="-20%" y="-20%" width="140%" height="140%">
      <feDropShadow dx="0" dy="18" stdDeviation="24" flood-color="#000000" flood-opacity="0.35"/>
    </filter>
  </defs>
  <rect width="1920" height="1080" fill="url(#bg)"/>
  <rect width="1920" height="1080" fill="url(#glowA)"/>
  <rect width="1920" height="1080" fill="url(#glowB)"/>
  <g font-family="Inter, Segoe UI, Arial, sans-serif">
    
    
    <text x="110" y="92" font-size="24" font-weight="800" fill="#38bdf8" letter-spacing="4">APPLYFLOW AI CASE STUDY</text>
    <text x="110" y="158" font-size="56" font-weight="850" fill="#f8fbff">Kanban Board</text>
    <text x="112" y="215" font-size="28" fill="#aebce0">Actual implementation uses: Applied, Screening, Interview, Offer, Rejected, Withdrawn</text>
    <rect x="115" y="285" width="250" height="520" rx="26" fill="#111936" stroke="#30406f" stroke-width="2"/>
        <text x="143" y="345" font-size="28" font-weight="850" fill="#f8fbff">Applied</text>
        <rect x="139" y="390" width="202" height="92" rx="18" fill="#0c1230" stroke="#38bdf8" stroke-width="2"/><text x="163" y="430" font-size="20" font-weight="700" fill="#f8fbff">Company 1</text><text x="163" y="462" font-size="17" fill="#aebce0">Backend Role</text>
<rect x="139" y="515" width="202" height="92" rx="18" fill="#0c1230" stroke="#6366f1" stroke-width="2"/><text x="163" y="555" font-size="20" font-weight="700" fill="#f8fbff">Company 2</text><text x="163" y="587" font-size="17" fill="#aebce0">Backend Role</text>
<rect x="139" y="640" width="202" height="92" rx="18" fill="#0c1230" stroke="#a855f7" stroke-width="2"/><text x="163" y="680" font-size="20" font-weight="700" fill="#f8fbff">Company 3</text><text x="163" y="712" font-size="17" fill="#aebce0">Backend Role</text>
      
<rect x="405" y="285" width="250" height="520" rx="26" fill="#111936" stroke="#30406f" stroke-width="2"/>
        <text x="433" y="345" font-size="28" font-weight="850" fill="#f8fbff">Screening</text>
        <rect x="429" y="390" width="202" height="92" rx="18" fill="#0c1230" stroke="#6366f1" stroke-width="2"/><text x="453" y="430" font-size="20" font-weight="700" fill="#f8fbff">Company 1</text><text x="453" y="462" font-size="17" fill="#aebce0">Backend Role</text>
<rect x="429" y="515" width="202" height="92" rx="18" fill="#0c1230" stroke="#a855f7" stroke-width="2"/><text x="453" y="555" font-size="20" font-weight="700" fill="#f8fbff">Company 2</text><text x="453" y="587" font-size="17" fill="#aebce0">Backend Role</text>
<rect x="429" y="640" width="202" height="92" rx="18" fill="#0c1230" stroke="#38bdf8" stroke-width="2"/><text x="453" y="680" font-size="20" font-weight="700" fill="#f8fbff">Company 3</text><text x="453" y="712" font-size="17" fill="#aebce0">Backend Role</text>
      
<rect x="695" y="285" width="250" height="520" rx="26" fill="#111936" stroke="#30406f" stroke-width="2"/>
        <text x="723" y="345" font-size="28" font-weight="850" fill="#f8fbff">Interview</text>
        <rect x="719" y="390" width="202" height="92" rx="18" fill="#0c1230" stroke="#a855f7" stroke-width="2"/><text x="743" y="430" font-size="20" font-weight="700" fill="#f8fbff">Company 1</text><text x="743" y="462" font-size="17" fill="#aebce0">Backend Role</text>
<rect x="719" y="515" width="202" height="92" rx="18" fill="#0c1230" stroke="#38bdf8" stroke-width="2"/><text x="743" y="555" font-size="20" font-weight="700" fill="#f8fbff">Company 2</text><text x="743" y="587" font-size="17" fill="#aebce0">Backend Role</text>
<rect x="719" y="640" width="202" height="92" rx="18" fill="#0c1230" stroke="#6366f1" stroke-width="2"/><text x="743" y="680" font-size="20" font-weight="700" fill="#f8fbff">Company 3</text><text x="743" y="712" font-size="17" fill="#aebce0">Backend Role</text>
      
<rect x="985" y="285" width="250" height="520" rx="26" fill="#111936" stroke="#30406f" stroke-width="2"/>
        <text x="1013" y="345" font-size="28" font-weight="850" fill="#f8fbff">Offer</text>
        <rect x="1009" y="390" width="202" height="92" rx="18" fill="#0c1230" stroke="#38bdf8" stroke-width="2"/><text x="1033" y="430" font-size="20" font-weight="700" fill="#f8fbff">Company 1</text><text x="1033" y="462" font-size="17" fill="#aebce0">Backend Role</text>
<rect x="1009" y="515" width="202" height="92" rx="18" fill="#0c1230" stroke="#6366f1" stroke-width="2"/><text x="1033" y="555" font-size="20" font-weight="700" fill="#f8fbff">Company 2</text><text x="1033" y="587" font-size="17" fill="#aebce0">Backend Role</text>
<rect x="1009" y="640" width="202" height="92" rx="18" fill="#0c1230" stroke="#a855f7" stroke-width="2"/><text x="1033" y="680" font-size="20" font-weight="700" fill="#f8fbff">Company 3</text><text x="1033" y="712" font-size="17" fill="#aebce0">Backend Role</text>
      
<rect x="1275" y="285" width="250" height="520" rx="26" fill="#111936" stroke="#30406f" stroke-width="2"/>
        <text x="1303" y="345" font-size="28" font-weight="850" fill="#f8fbff">Rejected</text>
        <rect x="1299" y="390" width="202" height="92" rx="18" fill="#0c1230" stroke="#6366f1" stroke-width="2"/><text x="1323" y="430" font-size="20" font-weight="700" fill="#f8fbff">Company 1</text><text x="1323" y="462" font-size="17" fill="#aebce0">Backend Role</text>
<rect x="1299" y="515" width="202" height="92" rx="18" fill="#0c1230" stroke="#a855f7" stroke-width="2"/><text x="1323" y="555" font-size="20" font-weight="700" fill="#f8fbff">Company 2</text><text x="1323" y="587" font-size="17" fill="#aebce0">Backend Role</text>
      
<rect x="1565" y="285" width="250" height="520" rx="26" fill="#111936" stroke="#30406f" stroke-width="2"/>
        <text x="1593" y="345" font-size="28" font-weight="850" fill="#f8fbff">Withdrawn</text>
        <rect x="1589" y="390" width="202" height="92" rx="18" fill="#0c1230" stroke="#a855f7" stroke-width="2"/><text x="1613" y="430" font-size="20" font-weight="700" fill="#f8fbff">Company 1</text><text x="1613" y="462" font-size="17" fill="#aebce0">Backend Role</text>
      
  
    
    <text x="110" y="1010" font-size="22" fill="#aebce0">ASP.NET Core | Next.js | PostgreSQL | Playwright | Jira</text>
    <text x="1810" y="1010" text-anchor="end" font-size="24" font-weight="800" fill="#aebce0">08/14</text>
  </g>
  <title>Kanban Board</title>
</svg>